<mxfile host="app.diagrams.net" modified="2024-05-24T09:35:09.175Z" agent="Mozilla/5.0 (Macintosh; Intel Mac OS X 10_15_7) AppleWebKit/537.36 (KHTML, like Gecko) Chrome/124.0.0.0 Safari/537.36" etag="5ubnJ06QjFVFE-EnB6pq" version="24.2.3" type="github">
  <diagram name="第 1 页" id="Q7Gvt4QFnIn6zukc3v90">
    <mxGraphModel dx="2074" dy="1146" grid="1" gridSize="10" guides="1" tooltips="1" connect="1" arrows="1" fold="1" page="1" pageScale="1" pageWidth="827" pageHeight="1169" math="0" shadow="0">
      <root>
        <mxCell id="0" />
        <mxCell id="1" parent="0" />
        <mxCell id="1_HsqvHYftU-eJkgPilV-21" style="edgeStyle=orthogonalEdgeStyle;rounded=0;orthogonalLoop=1;jettySize=auto;html=1;exitX=1;exitY=0.5;exitDx=0;exitDy=0;entryX=0;entryY=0.5;entryDx=0;entryDy=0;" edge="1" parent="1" source="1_HsqvHYftU-eJkgPilV-1" target="1_HsqvHYftU-eJkgPilV-3">
          <mxGeometry relative="1" as="geometry" />
        </mxCell>
        <mxCell id="1_HsqvHYftU-eJkgPilV-1" value="请求1" style="rounded=0;whiteSpace=wrap;html=1;" vertex="1" parent="1">
          <mxGeometry x="100" y="320" width="120" height="50" as="geometry" />
        </mxCell>
        <mxCell id="1_HsqvHYftU-eJkgPilV-25" style="edgeStyle=orthogonalEdgeStyle;rounded=0;orthogonalLoop=1;jettySize=auto;html=1;exitX=1;exitY=0.5;exitDx=0;exitDy=0;" edge="1" parent="1" source="1_HsqvHYftU-eJkgPilV-2" target="1_HsqvHYftU-eJkgPilV-4">
          <mxGeometry relative="1" as="geometry" />
        </mxCell>
        <mxCell id="1_HsqvHYftU-eJkgPilV-2" value="请求2" style="rounded=0;whiteSpace=wrap;html=1;" vertex="1" parent="1">
          <mxGeometry x="100" y="400" width="120" height="50" as="geometry" />
        </mxCell>
        <mxCell id="1_HsqvHYftU-eJkgPilV-22" style="edgeStyle=orthogonalEdgeStyle;rounded=0;orthogonalLoop=1;jettySize=auto;html=1;exitX=1;exitY=0.5;exitDx=0;exitDy=0;entryX=0;entryY=0.5;entryDx=0;entryDy=0;" edge="1" parent="1" source="1_HsqvHYftU-eJkgPilV-3" target="1_HsqvHYftU-eJkgPilV-5">
          <mxGeometry relative="1" as="geometry" />
        </mxCell>
        <mxCell id="1_HsqvHYftU-eJkgPilV-3" value="业务逻辑" style="rounded=0;whiteSpace=wrap;html=1;" vertex="1" parent="1">
          <mxGeometry x="294" y="320" width="120" height="50" as="geometry" />
        </mxCell>
        <mxCell id="1_HsqvHYftU-eJkgPilV-26" style="edgeStyle=orthogonalEdgeStyle;rounded=0;orthogonalLoop=1;jettySize=auto;html=1;exitX=1;exitY=0.5;exitDx=0;exitDy=0;entryX=0;entryY=0.5;entryDx=0;entryDy=0;" edge="1" parent="1" source="1_HsqvHYftU-eJkgPilV-4" target="1_HsqvHYftU-eJkgPilV-6">
          <mxGeometry relative="1" as="geometry" />
        </mxCell>
        <mxCell id="1_HsqvHYftU-eJkgPilV-4" value="业务逻辑" style="rounded=0;whiteSpace=wrap;html=1;" vertex="1" parent="1">
          <mxGeometry x="450" y="400" width="120" height="50" as="geometry" />
        </mxCell>
        <mxCell id="1_HsqvHYftU-eJkgPilV-23" style="edgeStyle=orthogonalEdgeStyle;rounded=0;orthogonalLoop=1;jettySize=auto;html=1;exitX=1;exitY=0.5;exitDx=0;exitDy=0;entryX=0;entryY=0.5;entryDx=0;entryDy=0;" edge="1" parent="1" source="1_HsqvHYftU-eJkgPilV-5" target="1_HsqvHYftU-eJkgPilV-7">
          <mxGeometry relative="1" as="geometry" />
        </mxCell>
        <mxCell id="1_HsqvHYftU-eJkgPilV-5" value="写DB" style="rounded=0;whiteSpace=wrap;html=1;" vertex="1" parent="1">
          <mxGeometry x="450" y="320" width="120" height="50" as="geometry" />
        </mxCell>
        <mxCell id="1_HsqvHYftU-eJkgPilV-27" style="edgeStyle=orthogonalEdgeStyle;rounded=0;orthogonalLoop=1;jettySize=auto;html=1;exitX=1;exitY=0.5;exitDx=0;exitDy=0;entryX=0;entryY=0.5;entryDx=0;entryDy=0;" edge="1" parent="1" source="1_HsqvHYftU-eJkgPilV-6" target="1_HsqvHYftU-eJkgPilV-8">
          <mxGeometry relative="1" as="geometry" />
        </mxCell>
        <mxCell id="1_HsqvHYftU-eJkgPilV-6" value="写DB" style="rounded=0;whiteSpace=wrap;html=1;" vertex="1" parent="1">
          <mxGeometry x="620" y="400" width="120" height="50" as="geometry" />
        </mxCell>
        <mxCell id="1_HsqvHYftU-eJkgPilV-24" style="edgeStyle=orthogonalEdgeStyle;rounded=0;orthogonalLoop=1;jettySize=auto;html=1;exitX=1;exitY=0.5;exitDx=0;exitDy=0;entryX=0;entryY=0.5;entryDx=0;entryDy=0;" edge="1" parent="1" source="1_HsqvHYftU-eJkgPilV-7" target="1_HsqvHYftU-eJkgPilV-9">
          <mxGeometry relative="1" as="geometry" />
        </mxCell>
        <mxCell id="1_HsqvHYftU-eJkgPilV-7" value="写redis" style="rounded=0;whiteSpace=wrap;html=1;" vertex="1" parent="1">
          <mxGeometry x="620" y="320" width="120" height="50" as="geometry" />
        </mxCell>
        <mxCell id="1_HsqvHYftU-eJkgPilV-28" style="edgeStyle=orthogonalEdgeStyle;rounded=0;orthogonalLoop=1;jettySize=auto;html=1;exitX=1;exitY=0.5;exitDx=0;exitDy=0;entryX=0;entryY=0.5;entryDx=0;entryDy=0;" edge="1" parent="1" source="1_HsqvHYftU-eJkgPilV-8" target="1_HsqvHYftU-eJkgPilV-10">
          <mxGeometry relative="1" as="geometry" />
        </mxCell>
        <mxCell id="1_HsqvHYftU-eJkgPilV-8" value="写redis" style="rounded=0;whiteSpace=wrap;html=1;" vertex="1" parent="1">
          <mxGeometry x="780" y="400" width="120" height="50" as="geometry" />
        </mxCell>
        <mxCell id="1_HsqvHYftU-eJkgPilV-9" value="发mafka" style="rounded=0;whiteSpace=wrap;html=1;" vertex="1" parent="1">
          <mxGeometry x="780" y="320" width="120" height="50" as="geometry" />
        </mxCell>
        <mxCell id="1_HsqvHYftU-eJkgPilV-10" value="发mafka" style="rounded=0;whiteSpace=wrap;html=1;" vertex="1" parent="1">
          <mxGeometry x="930" y="400" width="120" height="50" as="geometry" />
        </mxCell>
        <mxCell id="1_HsqvHYftU-eJkgPilV-11" value="" style="endArrow=none;html=1;rounded=0;" edge="1" parent="1">
          <mxGeometry width="50" height="50" relative="1" as="geometry">
            <mxPoint x="430" y="500" as="sourcePoint" />
            <mxPoint x="430" y="270" as="targetPoint" />
          </mxGeometry>
        </mxCell>
        <mxCell id="1_HsqvHYftU-eJkgPilV-12" value="时刻1" style="text;html=1;align=center;verticalAlign=middle;resizable=0;points=[];autosize=1;strokeColor=none;fillColor=none;" vertex="1" parent="1">
          <mxGeometry x="400" y="230" width="50" height="30" as="geometry" />
        </mxCell>
        <mxCell id="1_HsqvHYftU-eJkgPilV-13" value="" style="endArrow=none;html=1;rounded=0;" edge="1" parent="1">
          <mxGeometry width="50" height="50" relative="1" as="geometry">
            <mxPoint x="600" y="510" as="sourcePoint" />
            <mxPoint x="600" y="280" as="targetPoint" />
          </mxGeometry>
        </mxCell>
        <mxCell id="1_HsqvHYftU-eJkgPilV-14" value="时刻2&lt;span style=&quot;color: rgba(0, 0, 0, 0); font-family: monospace; font-size: 0px; text-align: start;&quot;&gt;%3CmxGraphModel%3E%3Croot%3E%3CmxCell%20id%3D%220%22%2F%3E%3CmxCell%20id%3D%221%22%20parent%3D%220%22%2F%3E%3CmxCell%20id%3D%222%22%20value%3D%22%22%20style%3D%22endArrow%3Dnone%3Bhtml%3D1%3Brounded%3D0%3B%22%20edge%3D%221%22%20parent%3D%221%22%3E%3CmxGeometry%20width%3D%2250%22%20height%3D%2250%22%20relative%3D%221%22%20as%3D%22geometry%22%3E%3CmxPoint%20x%3D%22430%22%20y%3D%22500%22%20as%3D%22sourcePoint%22%2F%3E%3CmxPoint%20x%3D%22430%22%20y%3D%22270%22%20as%3D%22targetPoint%22%2F%3E%3C%2FmxGeometry%3E%3C%2FmxCell%3E%3CmxCell%20id%3D%223%22%20value%3D%22%E6%97%B6%E5%88%BB1%22%20style%3D%22text%3Bhtml%3D1%3Balign%3Dcenter%3BverticalAlign%3Dmiddle%3Bresizable%3D0%3Bpoints%3D%5B%5D%3Bautosize%3D1%3BstrokeColor%3Dnone%3BfillColor%3Dnone%3B%22%20vertex%3D%221%22%20parent%3D%221%22%3E%3CmxGeometry%20x%3D%22400%22%20y%3D%22230%22%20width%3D%2250%22%20height%3D%2230%22%20as%3D%22geometry%22%2F%3E%3C%2FmxCell%3E%3C%2Froot%3E%3C%2FmxGraphModel%3E&lt;/span&gt;" style="text;html=1;align=center;verticalAlign=middle;resizable=0;points=[];autosize=1;strokeColor=none;fillColor=none;" vertex="1" parent="1">
          <mxGeometry x="570" y="240" width="50" height="30" as="geometry" />
        </mxCell>
        <mxCell id="1_HsqvHYftU-eJkgPilV-15" value="" style="endArrow=none;html=1;rounded=0;" edge="1" parent="1">
          <mxGeometry width="50" height="50" relative="1" as="geometry">
            <mxPoint x="760" y="510" as="sourcePoint" />
            <mxPoint x="760" y="280" as="targetPoint" />
          </mxGeometry>
        </mxCell>
        <mxCell id="1_HsqvHYftU-eJkgPilV-16" value="时刻3" style="text;html=1;align=center;verticalAlign=middle;resizable=0;points=[];autosize=1;strokeColor=none;fillColor=none;" vertex="1" parent="1">
          <mxGeometry x="730" y="240" width="50" height="30" as="geometry" />
        </mxCell>
        <mxCell id="1_HsqvHYftU-eJkgPilV-17" value="" style="endArrow=none;html=1;rounded=0;" edge="1" parent="1">
          <mxGeometry width="50" height="50" relative="1" as="geometry">
            <mxPoint x="920" y="510" as="sourcePoint" />
            <mxPoint x="920" y="280" as="targetPoint" />
          </mxGeometry>
        </mxCell>
        <mxCell id="1_HsqvHYftU-eJkgPilV-18" value="时刻4" style="text;html=1;align=center;verticalAlign=middle;resizable=0;points=[];autosize=1;strokeColor=none;fillColor=none;" vertex="1" parent="1">
          <mxGeometry x="890" y="240" width="50" height="30" as="geometry" />
        </mxCell>
      </root>
    </mxGraphModel>
  </diagram>
</mxfile>
